<svg width="41" height="41" viewBox="0 0 41 41" fill="none" xmlns="http://www.w3.org/2000/svg">
<g clip-path="url(#clip0_1_15)">
<path d="M20.5 0C9.19561 0 0 9.19649 0 20.5C0 31.8035 9.19561 41 20.5 41C31.8044 41 41 31.8035 41 20.5C41 9.19649 31.8044 0 20.5 0ZM20.5 39.2917C10.1382 39.2917 1.70831 30.8618 1.70831 20.5C1.70831 10.1382 10.1382 1.70831 20.5 1.70831C30.8618 1.70831 39.2917 10.1382 39.2917 20.5C39.2917 30.8618 30.8618 39.2917 20.5 39.2917Z" fill="#FF4E4E"/>
<path d="M16.229 8.54175H11.104C9.69095 8.54175 8.5415 9.69119 8.5415 11.1042V16.2292C8.5415 17.6423 9.69095 18.7917 11.104 18.7917H16.229C17.6421 18.7917 18.7915 17.6423 18.7915 16.2292V11.1042C18.7915 9.69119 17.6421 8.54175 16.229 8.54175ZM17.0831 16.2292C17.0831 16.7005 16.6994 17.0834 16.2289 17.0834H11.1039C10.6335 17.0834 10.2497 16.7006 10.2497 16.2292V11.1042C10.2497 10.633 10.6335 10.2501 11.1039 10.2501H16.2289C16.6994 10.2501 17.0831 10.6329 17.0831 11.1042V16.2292Z" fill="#FF4E4E"/>
<path d="M29.896 8.54175H24.771C23.3579 8.54175 22.2085 9.69119 22.2085 11.1042V16.2292C22.2085 17.6423 23.3579 18.7917 24.771 18.7917H29.896C31.3091 18.7917 32.4585 17.6423 32.4585 16.2292V11.1042C32.4585 9.69119 31.3091 8.54175 29.896 8.54175ZM30.7502 16.2292C30.7502 16.7005 30.3665 17.0834 29.896 17.0834H24.771C24.3005 17.0834 23.9168 16.7006 23.9168 16.2292V11.1042C23.9168 10.633 24.3005 10.2501 24.771 10.2501H29.896C30.3665 10.2501 30.7502 10.6329 30.7502 11.1042V16.2292Z" fill="#FF4E4E"/>
<path d="M16.229 22.2083H11.104C9.69095 22.2083 8.5415 23.3577 8.5415 24.7708V29.8958C8.5415 31.3088 9.69095 32.4583 11.104 32.4583H16.229C17.6421 32.4583 18.7915 31.3088 18.7915 29.8958V24.7708C18.7915 23.3578 17.6421 22.2083 16.229 22.2083ZM17.0831 29.8958C17.0831 30.367 16.6994 30.7499 16.2289 30.7499H11.1039C10.6335 30.7499 10.2497 30.3671 10.2497 29.8958V24.7708C10.2497 24.2995 10.6335 23.9166 11.1039 23.9166H16.2289C16.6994 23.9166 17.0831 24.2994 17.0831 24.7708V29.8958Z" fill="#FF4E4E"/>
<path d="M29.896 22.2083H24.771C23.3579 22.2083 22.2085 23.3577 22.2085 24.7708V29.8958C22.2085 31.3088 23.3579 32.4583 24.771 32.4583H29.896C31.3091 32.4583 32.4585 31.3088 32.4585 29.8958V24.7708C32.4585 23.3578 31.3091 22.2083 29.896 22.2083ZM30.7502 29.8958C30.7502 30.367 30.3665 30.7499 29.896 30.7499H24.771C24.3005 30.7499 23.9168 30.3671 23.9168 29.8958V24.7708C23.9168 24.2995 24.3005 23.9166 24.771 23.9166H29.896C30.3665 23.9166 30.7502 24.2994 30.7502 24.7708V29.8958Z" fill="#FF4E4E"/>
</g>
<defs>
<clipPath id="clip0_1_15">
<rect width="41" height="41" fill="white"/>
</clipPath>
</defs>
</svg>
